<svg width="19" height="22" viewBox="0 0 19 22" fill="none" xmlns="http://www.w3.org/2000/svg">
<path d="M11.7305 20.7305V21.4605V21.4605V20.7305ZM6.73047 20.7305L6.73047 20.0005H6.73047L6.73047 20.7305ZM1.60915 3.09274L1.09272 2.5768L1.09272 2.5768L1.60915 3.09274ZM16.8518 3.09274L16.3354 3.60869V3.60869L16.8518 3.09274ZM16.8518 19.851L16.3354 19.335V19.335L16.8518 19.851ZM1.60915 19.851L1.09272 20.3669H1.09272L1.60915 19.851ZM3.73438 8.00047C3.33121 8.00047 3.00438 8.3273 3.00438 8.73047C3.00438 9.13364 3.33121 9.46047 3.73438 9.46047L3.73438 8.73047V8.00047ZM7.73437 9.46047C8.13754 9.46047 8.46437 9.13364 8.46437 8.73047C8.46437 8.3273 8.13754 8.00047 7.73437 8.00047V8.73047V9.46047ZM10.7344 9.00047C10.3312 9.00047 10.0044 9.3273 10.0044 9.73047C10.0044 10.1336 10.3312 10.4605 10.7344 10.4605V9.73047L10.7344 9.00047ZM11.7344 10.7305L11.0814 11.0569C11.1991 11.2923 11.4343 11.4461 11.697 11.4595C11.9598 11.473 12.2095 11.344 12.3505 11.1219L11.7344 10.7305ZM14.9781 8.41859C15.3581 8.28399 15.5571 7.8668 15.4225 7.48676C15.2879 7.10672 14.8707 6.90775 14.4907 7.04235L14.7344 7.73047L14.9781 8.41859ZM3.73438 14.0005C3.33121 14.0005 3.00438 14.3273 3.00438 14.7305C3.00438 15.1336 3.33121 15.4605 3.73438 15.4605V14.7305L3.73438 14.0005ZM7.73437 15.4605C8.13754 15.4605 8.46437 15.1336 8.46437 14.7305C8.46437 14.3273 8.13754 14.0005 7.73437 14.0005V14.7305V15.4605ZM10.7344 15.0005C10.3312 15.0005 10.0044 15.3273 10.0044 15.7305C10.0044 16.1336 10.3312 16.4605 10.7344 16.4605V15.7305L10.7344 15.0005ZM11.7344 16.7305L11.0814 17.0569C11.1991 17.2923 11.4343 17.4461 11.697 17.4595C11.9598 17.473 12.2095 17.344 12.3505 17.1219L11.7344 16.7305ZM14.9781 14.4186C15.3581 14.284 15.5571 13.8668 15.4225 13.4868C15.2879 13.1067 14.8707 12.9078 14.4907 13.0424L14.7344 13.7305L14.9781 14.4186ZM11.7305 20.7305L11.7305 20.0005L6.73047 20.0005L6.73047 20.7305V21.4605L11.7305 21.4605V20.7305ZM17.7305 14.7249H18.4605V8.21883H17.7305H17.0005V14.7249H17.7305ZM0.730469 8.21883H0.000468731L0.000468731 14.7249H0.730469H1.46047L1.46047 8.21883H0.730469ZM0.730469 8.21883H1.46047C1.46047 6.78268 1.46202 5.77894 1.56381 5.02113C1.66278 4.28426 1.84436 3.89017 2.12558 3.60869L1.60915 3.09274L1.09272 2.5768C0.49526 3.17481 0.237493 3.92824 0.116801 4.82677C-0.00107878 5.70437 0.000468731 6.82392 0.000468731 8.21883H0.730469ZM17.7305 8.21883H18.4605C18.4605 6.82392 18.462 5.70437 18.3441 4.82677C18.2234 3.92824 17.9657 3.17481 17.3682 2.5768L16.8518 3.09274L16.3354 3.60869C16.6166 3.89017 16.7982 4.28426 16.8971 5.02113C16.9989 5.77894 17.0005 6.78268 17.0005 8.21883H17.7305ZM11.7305 20.7305V21.4605C13.124 21.4605 14.2427 21.462 15.1196 21.344C16.0177 21.2232 16.7707 20.965 17.3682 20.3669L16.8518 19.851L16.3354 19.335C16.0542 19.6164 15.6608 19.798 14.9249 19.8971C14.168 19.9989 13.1653 20.0005 11.7305 20.0005V20.7305ZM17.7305 14.7249H17.0005C17.0005 16.161 16.9989 17.1648 16.8971 17.9226C16.7982 18.6595 16.6166 19.0535 16.3354 19.335L16.8518 19.851L17.3682 20.3669C17.9657 19.7689 18.2234 19.0155 18.3441 18.1169C18.462 17.2393 18.4605 16.1198 18.4605 14.7249H17.7305ZM6.73047 20.7305L6.73047 20.0005C5.2956 20.0005 4.29295 19.9989 3.53601 19.897C2.80014 19.798 2.4067 19.6164 2.12558 19.335L1.60915 19.851L1.09272 20.3669C1.69028 20.965 2.44328 21.2232 3.34129 21.344C4.21824 21.462 5.33691 21.4605 6.73047 21.4605V20.7305ZM0.730469 14.7249H0.000468731C0.000468731 16.1198 -0.00107878 17.2393 0.116801 18.1169C0.237493 19.0155 0.49526 19.7689 1.09272 20.3669L1.60915 19.851L2.12558 19.335C1.84436 19.0535 1.66278 18.6595 1.56381 17.9226C1.46202 17.1648 1.46047 16.161 1.46047 14.7249H0.730469ZM4.73438 2.23047L4.71248 1.5008C3.16786 1.54714 1.95927 1.70943 1.09272 2.5768L1.60915 3.09274L2.12558 3.60869C2.5427 3.19118 3.18929 3.00715 4.75627 2.96014L4.73438 2.23047ZM13.7266 2.23047L13.7047 2.96014C15.2716 3.00715 15.9182 3.19118 16.3354 3.60869L16.8518 3.09274L17.3682 2.5768C16.5017 1.70943 15.2931 1.54714 13.7484 1.5008L13.7266 2.23047ZM6.48047 0.730469V1.46047L11.9805 1.46047V0.730469V0.000468731L6.48047 0.000468731V0.730469ZM11.9805 4.23047V3.50047L6.48047 3.50047V4.23047V4.96047L11.9805 4.96047L11.9805 4.23047ZM6.48047 4.23047V3.50047C5.91714 3.50047 5.46047 3.0438 5.46047 2.48047H4.73047H4.00047C4.00047 3.85014 5.1108 4.96047 6.48047 4.96047V4.23047ZM13.7305 2.48047H13.0005C13.0005 3.0438 12.5438 3.50047 11.9805 3.50047V4.23047L11.9805 4.96047C13.3501 4.96047 14.4605 3.85014 14.4605 2.48047L13.7305 2.48047ZM11.9805 0.730469V1.46047C12.5438 1.46047 13.0005 1.91714 13.0005 2.48047H13.7305L14.4605 2.48047C14.4605 1.1108 13.3501 0.000468731 11.9805 0.000468731V0.730469ZM6.48047 0.730469V0.000468731C5.1108 0.000468731 4.00047 1.1108 4.00047 2.48047H4.73047H5.46047C5.46047 1.91714 5.91714 1.46047 6.48047 1.46047V0.730469ZM3.73438 8.73047L3.73438 9.46047L7.73437 9.46047V8.73047V8.00047L3.73438 8.00047V8.73047ZM10.7344 9.73047C10.7344 10.4605 10.7337 10.4605 10.733 10.4605C10.7327 10.4605 10.732 10.4605 10.7315 10.4605C10.7306 10.4605 10.7297 10.4605 10.7287 10.4604C10.7269 10.4604 10.7251 10.4604 10.7232 10.4604C10.7196 10.4603 10.7161 10.4602 10.7127 10.4601C10.7058 10.4599 10.6993 10.4596 10.6931 10.4592C10.6808 10.4584 10.6699 10.4573 10.6604 10.456C10.6412 10.4535 10.6278 10.4503 10.6198 10.448C10.6026 10.4431 10.6116 10.4427 10.6419 10.4629C10.7012 10.5023 10.8747 10.6435 11.0814 11.0569L11.7344 10.7305L12.3873 10.404C12.094 9.8174 11.7676 9.4586 11.4518 9.24807C11.2946 9.14328 11.1474 9.08035 11.0209 9.04418C10.9581 9.02625 10.9018 9.01528 10.8533 9.00883C10.8291 9.0056 10.807 9.00351 10.7871 9.00223C10.7772 9.00159 10.7678 9.00115 10.759 9.00087C10.7546 9.00073 10.7503 9.00063 10.7462 9.00056C10.7442 9.00053 10.7422 9.00051 10.7402 9.00049C10.7392 9.00048 10.7382 9.00048 10.7373 9.00047C10.7368 9.00047 10.736 9.00047 10.7358 9.00047C10.7351 9.00047 10.7344 9.00047 10.7344 9.73047ZM11.7344 10.7305C12.3505 11.1219 12.3505 11.122 12.3504 11.1221C12.3504 11.1221 12.3504 11.1222 12.3504 11.1222C12.3503 11.1222 12.3503 11.1222 12.3504 11.1222C12.3504 11.1222 12.3505 11.122 12.3507 11.1216C12.3512 11.1209 12.352 11.1197 12.3532 11.1178C12.3556 11.1141 12.3594 11.1081 12.3647 11.1C12.3752 11.0838 12.3915 11.059 12.4129 11.0268C12.4559 10.9623 12.5197 10.8681 12.601 10.753C12.764 10.5221 12.9946 10.2104 13.2655 9.8856C13.5379 9.55914 13.842 9.2303 14.1514 8.959C14.4683 8.68106 14.7509 8.49906 14.9781 8.41859L14.7344 7.73047L14.4907 7.04235C14.012 7.21188 13.5666 7.52988 13.1887 7.86132C12.8032 8.19939 12.4456 8.58929 12.1444 8.95034C11.8418 9.31307 11.5871 9.65763 11.4082 9.91105C11.3185 10.0381 11.2472 10.1432 11.1978 10.2174C11.1731 10.2545 11.1538 10.2839 11.1404 10.3045C11.1337 10.3148 11.1285 10.323 11.1248 10.3288C11.1229 10.3317 11.1214 10.334 11.1203 10.3357C11.1198 10.3365 11.1193 10.3373 11.119 10.3378C11.1188 10.3381 11.1186 10.3383 11.1185 10.3385C11.1185 10.3386 11.1184 10.3388 11.1183 10.3388C11.1183 10.3389 11.1182 10.339 11.7344 10.7305ZM3.73438 14.7305V15.4605L7.73437 15.4605V14.7305V14.0005L3.73438 14.0005L3.73438 14.7305ZM10.7344 15.7305C10.7344 16.4605 10.7337 16.4605 10.733 16.4605C10.7327 16.4605 10.732 16.4605 10.7315 16.4605C10.7306 16.4605 10.7297 16.4605 10.7287 16.4604C10.7269 16.4604 10.7251 16.4604 10.7232 16.4604C10.7196 16.4603 10.7161 16.4602 10.7127 16.4601C10.7058 16.4599 10.6993 16.4596 10.6931 16.4592C10.6808 16.4584 10.6699 16.4573 10.6604 16.456C10.6412 16.4535 10.6278 16.4503 10.6198 16.448C10.6026 16.4431 10.6116 16.4427 10.6419 16.4629C10.7012 16.5023 10.8747 16.6435 11.0814 17.0569L11.7344 16.7305L12.3873 16.404C12.094 15.8174 11.7676 15.4586 11.4518 15.2481C11.2946 15.1433 11.1474 15.0803 11.0209 15.0442C10.9581 15.0262 10.9018 15.0153 10.8533 15.0088C10.8291 15.0056 10.807 15.0035 10.7871 15.0022C10.7772 15.0016 10.7678 15.0011 10.759 15.0009C10.7546 15.0007 10.7503 15.0006 10.7462 15.0006C10.7442 15.0005 10.7422 15.0005 10.7402 15.0005C10.7392 15.0005 10.7382 15.0005 10.7373 15.0005C10.7368 15.0005 10.736 15.0005 10.7358 15.0005C10.7351 15.0005 10.7344 15.0005 10.7344 15.7305ZM11.7344 16.7305C12.3505 17.1219 12.3505 17.122 12.3504 17.1221C12.3504 17.1221 12.3504 17.1222 12.3504 17.1222C12.3503 17.1222 12.3503 17.1222 12.3504 17.1222C12.3504 17.1222 12.3505 17.122 12.3507 17.1216C12.3512 17.1209 12.352 17.1197 12.3532 17.1178C12.3556 17.1141 12.3594 17.1081 12.3647 17.1C12.3752 17.0838 12.3915 17.059 12.4129 17.0268C12.4559 16.9623 12.5197 16.8681 12.601 16.753C12.764 16.5221 12.9946 16.2104 13.2655 15.8856C13.5379 15.5591 13.842 15.2303 14.1514 14.959C14.4683 14.6811 14.7509 14.4991 14.9781 14.4186L14.7344 13.7305L14.4907 13.0424C14.012 13.2119 13.5666 13.5299 13.1887 13.8613C12.8032 14.1994 12.4456 14.5893 12.1444 14.9503C11.8418 15.3131 11.5871 15.6576 11.4082 15.9111C11.3185 16.0381 11.2472 16.1432 11.1978 16.2174C11.1731 16.2545 11.1538 16.2839 11.1404 16.3045C11.1337 16.3148 11.1285 16.323 11.1248 16.3288C11.1229 16.3317 11.1214 16.334 11.1203 16.3357C11.1198 16.3365 11.1193 16.3373 11.119 16.3378C11.1188 16.3381 11.1186 16.3383 11.1185 16.3385C11.1185 16.3386 11.1184 16.3388 11.1183 16.3388C11.1183 16.3389 11.1182 16.339 11.7344 16.7305Z" fill="#999999"/>
</svg>
