<svg width="85" height="69" viewBox="0 0 85 69" fill="none" xmlns="http://www.w3.org/2000/svg">
<path d="M8.56708 12.972C7.70873 15.7527 9.14451 18.7241 11.8565 19.7796C9.07582 18.9212 6.10441 20.357 5.04891 23.069C5.90727 20.2883 4.47148 17.3169 1.75947 16.2614C4.54017 17.1198 7.51158 15.684 8.56708 12.972Z" fill="#CEDCFC"/>
<path d="M6.79989 54.8871C7.47772 56.7049 9.44476 57.6901 11.3065 57.1444C9.48867 57.8222 8.5034 59.7892 9.04917 61.6509C8.37134 59.8332 6.4043 58.8479 4.5426 59.3936C6.36039 58.7158 7.34566 56.7488 6.79989 54.8871Z" fill="#CEDCFC"/>
<path d="M45.6278 3.21152C45.4009 5.13825 46.7011 6.91294 48.6066 7.2774C46.6798 7.05048 44.9052 8.35067 44.5407 10.2562C44.7676 8.32944 43.4674 6.55475 41.5619 6.19029C43.4886 6.41721 45.2633 5.11702 45.6278 3.21152Z" fill="#CEDCFC"/>
<path d="M4.59054 39.8413C4.2941 40.7624 4.75968 41.7561 5.6572 42.1178C4.73606 41.8213 3.7424 42.2869 3.38068 43.1844C3.67712 42.2633 3.21154 41.2696 2.31402 40.9079C3.23516 41.2044 4.22882 40.7388 4.59054 39.8413Z" fill="#CEDCFC"/>
<path d="M42.1911 50.2729C41.8947 51.194 42.3603 52.1877 43.2578 52.5494C42.3366 52.253 41.343 52.7186 40.9813 53.6161C41.2777 52.6949 40.8121 51.7013 39.9146 51.3396C40.8357 51.636 41.8294 51.1704 42.1911 50.2729Z" fill="#CEDCFC"/>
<path d="M37.9177 13.5268C37.6212 14.4479 38.0868 15.4416 38.9843 15.8033C38.0632 15.5069 37.0695 15.9725 36.7078 16.87C37.0043 15.9488 36.5387 14.9552 35.6412 14.5935C36.5623 14.8899 37.556 14.4243 37.9177 13.5268Z" fill="#CEDCFC"/>
<path d="M27.015 44.2332C27.015 44.2332 27.353 43.2977 28.0213 41.3888C28.6502 39.5838 30.2588 34.9107 30.1282 32.6261C29.787 26.6212 23.5825 22.228 21.0227 15.9763C19.6201 12.5533 20.1862 11.4872 19.3513 11.2215C18.5163 10.9557 16.3402 16.9181 19.2821 21.9544C19.2821 21.9544 16.5776 21.5645 16.1908 22.3444C15.804 23.1243 17.4566 24.7454 18.845 25.3617C18.845 25.3617 15.51 26.4074 15.3858 27.563C15.2615 28.7187 18.0352 29.637 19.3167 29.7313C19.3167 29.7313 17.26 30.6433 17.3166 31.5443C17.4015 32.9311 20.4472 32.9295 20.4472 32.9295C20.4472 32.9295 19.1217 33.6041 19.3465 34.2535C19.6453 35.1371 22.0353 35.3006 22.0353 35.3006C22.0353 35.3006 21.257 37.7048 24.3026 38.09C24.3026 38.09 23.9158 40.0083 26.2822 40.0728C26.2822 40.0728 26.7414 41.1734 26.6061 42.098C26.4709 43.0225 26.647 44.1295 27.015 44.2332Z" fill="#EBEBEB"/>
<path d="M27.3074 41.5904C27.3129 41.3682 27.2626 41.1482 27.1611 40.9504C26.8938 40.3419 26.6894 39.5856 27.3058 38.9347V39.0463C26.5196 38.7114 26.1721 37.8608 26.8875 36.9016C27.069 36.6559 27.2738 36.4284 27.4992 36.2223L27.5495 36.4409C24.573 36.8859 24.7523 35.4975 27.224 33.6562L27.2822 33.9566C24.1375 34.6154 23.2255 33.9849 26.2397 31.0571L26.301 31.3496C26.0792 31.3634 25.8566 31.3406 25.6422 31.282C24.3042 30.9235 24.584 29.4109 25.0038 28.0665C25.301 27.0979 25.2554 26.1105 24.8057 25.3856C24.3689 24.6895 23.7617 24.1164 23.0415 23.7205C22.6937 23.5141 22.3286 23.3384 21.9503 23.1953C22.3407 23.3086 22.7188 23.4603 23.0793 23.6482C24.5935 24.417 25.8844 25.7787 25.2366 28.0979C25.0479 28.8259 24.823 29.554 24.9787 30.2143C25.1438 30.8433 25.7649 31.0398 26.3341 31.0115L26.7193 30.9911L26.4048 31.3056C26.0683 31.62 24.463 33.2396 24.7318 33.6641C25.2035 34.0588 26.6391 33.7616 27.2885 33.6358L27.9395 33.4959C27.364 33.9361 25.7381 35.0478 25.6139 35.8167C25.6674 36.3953 27.1328 36.2459 27.5699 36.1972L27.9143 36.1532C27.4347 36.5856 26.8136 37.0856 26.6831 37.7806C26.5935 38.3796 27.0479 38.768 27.4505 38.9598C26.7791 39.5888 26.963 40.2775 27.1973 40.9331C27.2873 41.1421 27.3256 41.3697 27.3089 41.5967L27.3074 41.5904Z" fill="#C7C7C7"/>
<path d="M23.9866 30.4004C23.6819 30.6935 23.3947 31.0043 23.1265 31.3312C22.9159 31.6127 22.6643 31.9177 22.6124 32.2746C22.5809 33.108 23.6344 33.3061 24.2068 33.3832L24.364 33.3989C24.1081 33.7054 23.8852 34.0379 23.6989 34.3911C23.0275 35.6568 24.6973 35.5389 25.3436 35.4728L25.1769 35.671C24.8703 36.0357 24.3451 36.8314 24.7807 37.1254C25.2021 37.3502 25.765 37.3204 26.2634 37.2968H26.3672C26.026 37.6789 25.8247 38.2827 26.0763 38.6789C26.1417 38.799 26.2292 38.9057 26.3342 38.9934C25.8137 38.6695 25.7697 37.9603 26.2272 37.3329L26.254 37.4226C25.7398 37.465 24.8624 37.5798 24.5244 37.149C24.2665 36.6474 24.7068 35.9823 25.0511 35.5467L25.103 35.7244C24.6752 35.7868 24.239 35.7524 23.8262 35.6238C22.8498 35.2731 23.5479 34.1395 24.114 33.4382L24.1502 33.6112C23.5039 33.5137 22.408 33.2574 22.4787 32.3014C22.6077 31.6064 23.4898 30.8485 23.9788 30.4145L23.9866 30.4004Z" fill="#C7C7C7"/>
<path d="M29.2989 35.2284C29.9279 33.2645 29.5883 31.1104 28.8838 29.2094C28.1999 27.538 27.1149 26.0647 26.1039 24.5851C25.1337 23.2313 23.7328 21.3067 22.8098 19.9482C21.7752 18.3758 20.7013 16.7862 20.2185 14.9434C20.3113 15.8868 20.6494 16.8129 21.0377 17.6856C21.8334 19.4277 22.8853 21.0347 23.9545 22.6134C25.0237 24.192 26.1558 25.703 27.1998 27.2817C27.7319 28.0474 28.183 28.8662 28.5458 29.7252C29.2423 31.4548 29.6276 33.3715 29.2989 35.2284Z" fill="white"/>
<path d="M23.1625 37.51C23.1625 37.51 20.9502 31.3935 26.8402 28.2629C32.7303 25.1324 36.2744 30.7221 36.2744 30.7221C36.2744 30.7221 31.4315 35.6751 23.1625 37.51Z" fill="white"/>
<path d="M23.1637 37.5106C31.4312 35.6756 36.2725 30.7227 36.2725 30.7227C36.2725 30.7227 28.8163 32.056 23.1637 37.5106Z" fill="white"/>
<path d="M27.4063 29.3573C27.3296 29.3993 27.2453 29.4257 27.1583 29.435C27.0713 29.4442 26.9833 29.4362 26.8994 29.4114C26.8156 29.3865 26.7374 29.3454 26.6695 29.2902C26.6016 29.235 26.5453 29.167 26.5038 29.09L26.0525 28.2582C25.9686 28.103 25.9496 27.9209 25.9997 27.7517C26.0498 27.5825 26.1649 27.4401 26.3198 27.3557C26.475 27.2717 26.6571 27.2527 26.8263 27.3028C26.9955 27.3529 27.1379 27.4681 27.2224 27.623L27.6736 28.4548C27.7576 28.6099 27.7766 28.7921 27.7265 28.9613C27.6764 29.1304 27.5612 29.2728 27.4063 29.3573Z" fill="white"/>
<path opacity="0.4" d="M27.4063 29.3573C27.3296 29.3993 27.2453 29.4257 27.1583 29.435C27.0713 29.4442 26.9833 29.4362 26.8994 29.4114C26.8156 29.3865 26.7374 29.3454 26.6695 29.2902C26.6016 29.235 26.5453 29.167 26.5038 29.09L26.0525 28.2582C25.9686 28.103 25.9496 27.9209 25.9997 27.7517C26.0498 27.5825 26.1649 27.4401 26.3198 27.3557C26.475 27.2717 26.6571 27.2527 26.8263 27.3028C26.9955 27.3529 27.1379 27.4681 27.2224 27.623L27.6736 28.4548C27.7576 28.6099 27.7766 28.7921 27.7265 28.9613C27.6764 29.1304 27.5612 29.2728 27.4063 29.3573Z" fill="white"/>
<path opacity="0.2" d="M23.1637 37.5106C31.4312 35.6756 36.2725 30.7227 36.2725 30.7227C36.2725 30.7227 28.8163 32.056 23.1637 37.5106Z" fill="black"/>
<path d="M30.365 35.854L30.6251 35.7121C30.7466 35.6459 30.8368 35.5341 30.8758 35.4013C30.9148 35.2686 30.8995 35.1258 30.8333 35.0043L29.1963 32.0031L28.0243 32.6424L29.6613 35.6436C29.7272 35.7643 29.8381 35.8542 29.9698 35.8936C30.1016 35.933 30.2436 35.9188 30.365 35.854Z" fill="white"/>
<path opacity="0.3" d="M30.365 35.854L30.6251 35.7121C30.7466 35.6459 30.8368 35.5341 30.8758 35.4013C30.9148 35.2686 30.8995 35.1258 30.8333 35.0043L29.1963 32.0031L28.0243 32.6424L29.6613 35.6436C29.7272 35.7643 29.8381 35.8542 29.9698 35.8936C30.1016 35.933 30.2436 35.9188 30.365 35.854Z" fill="black"/>
<path d="M23.1637 37.5106C28.8163 32.0561 36.2725 30.7227 36.2725 30.7227C36.2725 30.7227 32.7284 25.1314 26.8383 28.2636C20.9482 31.3957 23.1637 37.5106 23.1637 37.5106Z" fill="white"/>
<path opacity="0.4" d="M23.1637 37.5106C28.8163 32.0561 36.2725 30.7227 36.2725 30.7227C36.2725 30.7227 32.7284 25.1314 26.8383 28.2636C20.9482 31.3957 23.1637 37.5106 23.1637 37.5106Z" fill="white"/>
<g opacity="0.3">
<path d="M28.2428 27.6599C30.5542 28.0042 32.4394 30.097 33.4521 31.4854C34.0558 31.2857 34.5857 31.1316 35.0244 31.0137C31.9756 26.9775 28.4362 27.6206 28.2632 27.6551L28.2428 27.6599Z" fill="white"/>
<path d="M27.7302 27.8477C29.5417 28.8159 31.0876 30.2144 32.2319 31.9201C32.419 31.8477 32.603 31.7817 32.7822 31.7172C30.5463 28.6999 27.7302 27.8477 27.7302 27.8477Z" fill="white"/>
</g>
<path opacity="0.1" d="M23.1637 37.5091C25.6795 35.0814 28.5601 33.4666 30.9736 32.4257C29.3777 33.075 25.2361 34.627 24.3273 33.8408C23.5411 33.1599 24.2738 30.4508 25.6433 29.0215C21.269 32.2731 23.1637 37.5091 23.1637 37.5091Z" fill="black"/>
<path d="M54.6519 54.5852C54.0601 56.5336 53.0887 58.3457 51.7938 59.9172C50.4989 61.4887 48.9059 62.7885 47.1067 63.7419C45.3074 64.6954 43.3373 65.2835 41.3098 65.4725C39.2823 65.6616 37.2375 65.4477 35.293 64.8433L30.2771 63.3181L40.2648 34.0879L43.5086 35.0675C43.7664 35.1314 44.0254 35.2032 44.2853 35.2829C46.237 35.864 48.0545 36.8253 49.6332 38.1115C51.212 39.3977 52.5207 40.9834 53.4842 42.7774C54.4477 44.5714 55.0469 46.5382 55.2473 48.5647C55.4477 50.5912 55.2454 52.6373 54.6519 54.5852Z" fill="white"/>
<path opacity="0.2" d="M54.6519 54.5852C54.0601 56.5336 53.0887 58.3457 51.7938 59.9172C50.4989 61.4887 48.9059 62.7885 47.1067 63.7419C45.3074 64.6954 43.3373 65.2835 41.3098 65.4725C39.2823 65.6616 37.2375 65.4477 35.293 64.8433L30.2771 63.3181L40.2648 34.0879L43.5086 35.0675C43.7664 35.1314 44.0254 35.2032 44.2853 35.2829C46.237 35.864 48.0545 36.8253 49.6332 38.1115C51.212 39.3977 52.5207 40.9834 53.4842 42.7774C54.4477 44.5714 55.0469 46.5382 55.2473 48.5647C55.4477 50.5912 55.2454 52.6373 54.6519 54.5852Z" fill="black"/>
<g opacity="0.05">
<path d="M31.7915 58.8979L44.1408 64.9374C45.7021 64.4912 47.1832 63.8014 48.5293 62.8933L33.0179 55.3066L31.7915 58.8979Z" fill="black"/>
<path d="M33.3485 54.331L49.4589 62.2101C49.7828 61.9554 50.0973 61.6871 50.4023 61.4051L33.7196 53.2461L33.3485 54.331Z" fill="black"/>
</g>
<path d="M30.421 63.3763C23.0413 60.5406 19.5453 51.771 22.6125 43.789C25.6797 35.8069 34.1486 31.6351 41.5284 34.4708C48.9082 37.3066 52.4042 46.0762 49.3369 54.0582C46.2697 62.0403 37.8008 66.2121 30.421 63.3763Z" fill="white"/>
<path opacity="0.1" d="M29.6211 62.7525C22.7613 60.1179 19.5719 51.8074 22.4973 44.1904C25.4227 36.5735 33.3552 32.5345 40.215 35.1691C47.0748 37.8037 50.2642 46.1142 47.3388 53.7312C44.4134 61.3481 36.481 65.3871 29.6211 62.7525Z" fill="black"/>
<path d="M29.956 61.8787C23.5299 59.4107 20.5421 51.6255 23.2826 44.4901C26.0231 37.3547 33.454 33.571 39.8801 36.039C46.3062 38.5071 49.294 46.2922 46.5536 53.4277C43.8131 60.5631 36.3821 64.3467 29.956 61.8787Z" fill="white"/>
<path opacity="0.5" d="M24.0143 42.8565C28.3933 48.0453 35.5916 56.5565 39.6342 61.2531C41.4838 60.2991 43.1007 58.9495 44.3701 57.3002L32.8274 35.6582C29.1968 36.5906 25.9326 39.1897 24.0143 42.8565Z" fill="#EBEBEB"/>
<path opacity="0.5" d="M22.7721 46.0586C22.3771 47.5339 22.2111 49.0612 22.28 50.587L34.9281 62.5951C35.6574 62.5386 36.38 62.4155 37.0869 62.2272C33.4233 58.0762 26.7219 50.5115 22.7721 46.0586Z" fill="#EBEBEB"/>
<path d="M38.3703 36.9902L38.0039 38.2198L38.1171 38.2497L38.2287 38.2827L38.5967 37.0531L38.3703 36.9902Z" fill="#263238"/>
<path d="M42.4617 40.9498C42.5151 41.008 42.5686 41.0678 42.6189 41.1291L43.4932 40.2203L43.3359 40.041L42.4617 40.9498Z" fill="#263238"/>
<path d="M44.8983 45.8287C44.9156 45.9105 44.9313 45.986 44.9471 46.0756L46.0996 45.7312L46.0509 45.4844L44.8983 45.8287Z" fill="#263238"/>
<path d="M44.6234 51.6691C44.6109 51.7116 44.5983 51.7525 44.5841 51.7934L45.6989 52.1078L45.7744 51.8594L44.6596 51.5449C44.647 51.5858 44.6344 51.6283 44.6234 51.6691Z" fill="#263238"/>
<path d="M41.6344 56.7523L42.4206 57.636L42.5967 57.452L41.8105 56.5684L41.6344 56.7523Z" fill="#263238"/>
<path d="M36.8808 59.6196L37.1198 60.8382L37.3525 60.769L37.1135 59.5488C37.0365 59.5756 36.9594 59.5976 36.8808 59.6196Z" fill="#263238"/>
<path d="M31.6043 59.6309L31.2363 60.8604L31.4612 60.9233L31.8291 59.6938L31.7159 59.6623L31.6043 59.6309Z" fill="#263238"/>
<path d="M26.3371 57.6885L26.4943 57.8678L27.3701 56.9589C27.3167 56.9008 27.2632 56.841 27.2129 56.7812L26.3371 57.6885Z" fill="#263238"/>
<path d="M23.7376 52.1783L23.7848 52.4252L24.9326 52.0808C24.9153 51.9991 24.8996 51.9236 24.8854 51.834L23.7376 52.1783Z" fill="#263238"/>
<path d="M24.1323 45.8047L24.0584 46.0531L25.1732 46.3676C25.1857 46.3251 25.1968 46.2843 25.2093 46.2434L25.2471 46.1192L24.1323 45.8047Z" fill="#263238"/>
<path d="M27.2315 40.4574L28.0176 41.3411C28.0758 41.2782 28.134 41.2184 28.1953 41.1571L27.4091 40.2734L27.2315 40.4574Z" fill="#263238"/>
<path d="M32.4785 37.1473L32.7175 38.369C32.7961 38.3423 32.8747 38.3203 32.9502 38.2983L32.7112 37.0781L32.4785 37.1473Z" fill="#263238"/>
<path d="M32.5828 37.6928L34.4979 50.017L35.6709 49.6569L32.902 37.5938L32.5828 37.6928Z" fill="#37474F"/>
<path d="M41.3266 42.4102L33.8909 49.088L34.6833 50L41.542 42.657L41.3266 42.4102Z" fill="#455A64"/>
<path d="M34.5272 48.8464C34.5087 48.8988 34.5007 48.9544 34.5038 49.0099C34.5069 49.0654 34.521 49.1198 34.5453 49.1698C34.5696 49.2199 34.6036 49.2646 34.6453 49.3013C34.687 49.3381 34.7356 49.3663 34.7882 49.3841C34.8984 49.4086 35.0137 49.3895 35.1102 49.3309C35.2066 49.2723 35.2766 49.1787 35.3056 49.0696C35.3243 49.0172 35.3325 48.9616 35.3295 48.906C35.3265 48.8504 35.3124 48.796 35.2881 48.7459C35.2638 48.6958 35.2297 48.6511 35.1879 48.6143C35.1461 48.5776 35.0973 48.5496 35.0445 48.5319C34.9344 48.5074 34.8191 48.5265 34.7226 48.5851C34.6262 48.6437 34.5562 48.7373 34.5272 48.8464Z" fill="#C7C7C7"/>
<path d="M34.7523 48.5234C34.6415 48.5825 34.5556 48.6796 34.5106 48.7969C34.4655 48.9141 34.4643 49.0437 34.507 49.1618C34.5264 49.217 34.5575 49.2674 34.5982 49.3094C34.6389 49.3514 34.6882 49.3841 34.7428 49.4052C34.7974 49.4263 34.8559 49.4352 34.9143 49.4315C34.9726 49.4278 35.0295 49.4114 35.081 49.3835C35.1918 49.3244 35.2776 49.2273 35.3227 49.1101C35.3677 48.9928 35.369 48.8632 35.3262 48.7451C35.3069 48.6899 35.2758 48.6396 35.2351 48.5975C35.1944 48.5555 35.145 48.5228 35.0905 48.5018C35.0359 48.4807 34.9774 48.4717 34.919 48.4754C34.8606 48.4792 34.8038 48.4955 34.7523 48.5234Z" fill="white"/>
<path d="M34.8464 48.7715L26.6732 53.0562L26.722 53.1835L34.9863 49.1394L34.8464 48.7715Z" fill="white"/>
<path d="M52.3301 39.0898L51.4034 37.8587L49.3482 39.4058C49.2379 39.4888 49.1651 39.6122 49.1458 39.7489C49.1265 39.8855 49.1623 40.0243 49.2453 40.1346L49.5461 40.5341C49.6291 40.6443 49.7525 40.7171 49.8892 40.7364C50.0258 40.7557 50.1646 40.7199 50.2749 40.6369L52.3301 39.0898Z" fill="white"/>
<path opacity="0.3" d="M52.3301 39.0898L51.4034 37.8587L49.3482 39.4058C49.2379 39.4888 49.1651 39.6122 49.1458 39.7489C49.1265 39.8855 49.1623 40.0243 49.2453 40.1346L49.5461 40.5341C49.6291 40.6443 49.7525 40.7171 49.8892 40.7364C50.0258 40.7557 50.1646 40.7199 50.2749 40.6369L52.3301 39.0898Z" fill="black"/>
<path d="M56.4111 45.6374C56.4111 45.6374 61.6832 40.2615 56.9866 34.134C52.2899 28.0064 45.8715 32.1874 45.8715 32.1874C45.8715 32.1874 49.5698 40.1341 56.4111 45.6374Z" fill="white"/>
<path opacity="0.4" d="M56.4111 45.6374C56.4111 45.6374 61.6832 40.2615 56.9866 34.134C52.2899 28.0064 45.8715 32.1874 45.8715 32.1874C45.8715 32.1874 49.5698 40.1341 56.4111 45.6374Z" fill="white"/>
<g opacity="0.3">
<path d="M54.048 43.5376C54.4663 43.9464 54.9002 44.352 55.3499 44.7467C59.5025 39.4227 57.6503 35.1553 57.5795 34.998C57.7211 38.5311 55.2084 42.0894 54.048 43.5376Z" fill="white"/>
<path d="M52.9868 42.452C53.1441 42.6281 53.3186 42.8026 53.49 42.9803C53.5183 42.9457 53.5466 42.9095 53.5765 42.8749C56.9114 38.8119 57.2354 34.4785 57.2354 34.4785C56.2212 38.6752 54.0466 41.3482 52.9868 42.452Z" fill="white"/>
</g>
<path opacity="0.1" d="M45.87 32.1959C47.4788 35.4165 49.4782 38.4266 51.8229 41.1584C49.6043 38.1363 47.936 34.3721 48.4093 32.9727C48.6405 32.2855 49.532 31.0088 53.3984 31.3028C49.5587 29.7886 45.87 32.1959 45.87 32.1959Z" fill="black"/>
<path d="M57.941 33.3918L58.0034 33.4747C58.2421 33.7918 58.1785 34.2423 57.8614 34.481L56.9029 35.2025C56.5859 35.4411 56.1354 35.3776 55.8967 35.0605L55.8343 34.9776C55.5956 34.6605 55.6592 34.21 55.9762 33.9714L56.9347 33.2499C57.2518 33.0112 57.7023 33.0747 57.941 33.3918Z" fill="white"/>
<path opacity="0.4" d="M57.941 33.3918L58.0034 33.4747C58.2421 33.7918 58.1785 34.2423 57.8614 34.481L56.9029 35.2025C56.5859 35.4411 56.1354 35.3776 55.8967 35.0605L55.8343 34.9776C55.5956 34.6605 55.6592 34.21 55.9762 33.9714L56.9347 33.2499C57.2518 33.0112 57.7023 33.0747 57.941 33.3918Z" fill="white"/>
<path d="M51.0766 52.9689C51.0766 52.9689 51.358 51.9374 51.9555 49.8477C52.5216 47.8697 54.0169 42.7721 55.811 40.846C60.528 35.7845 70.8899 35.7829 78.3587 31.8835C82.4468 29.7482 82.5584 28.4604 83.7188 28.7466C84.8792 29.0328 83.1166 35.6178 76.0787 38.2107C76.0787 38.2107 79.5002 39.5503 79.3807 40.4733C79.2612 41.3963 76.1856 41.7972 74.129 41.4749C74.129 41.4749 77.2486 44.4624 76.5536 45.563C75.8586 46.6637 71.9843 45.7376 70.4371 45.0284C70.4371 45.0284 72.1667 47.1071 71.456 47.8587C70.3553 49.0222 66.8238 47.1291 66.8238 47.1291C66.8238 47.1291 67.8757 48.5443 67.1556 48.9798C66.1744 49.5694 63.2828 48.2298 63.2828 48.2298C63.2828 48.2298 62.4542 50.8147 58.6381 49.2597C58.6381 49.2597 57.7088 51.1842 54.9131 49.7707C54.9131 49.7707 53.5908 50.45 53.0813 51.3431C52.5719 52.2362 51.5797 53.1073 51.0766 52.9689Z" fill="#EBEBEB"/>
<path d="M52.1819 50.2221C52.3218 49.9909 52.586 49.8809 52.8109 49.7504C53.5577 49.3824 54.336 48.8431 54.0939 47.8903L54.0043 47.9862C55.1663 48.1843 56.1741 47.6497 56.0326 46.3619C55.9974 46.029 55.9235 45.7013 55.8125 45.3855L55.5955 45.5427C58.7308 47.7818 59.5264 46.4516 57.9761 43.3005L57.6915 43.5269C60.8724 46.06 62.3818 46.071 60.9934 41.6291L60.712 41.8477C60.9663 41.9999 61.2397 42.1178 61.5249 42.1983C63.3363 42.7125 64.1004 41.2124 64.58 39.7706C64.7436 39.2577 65.0234 38.7896 65.3976 38.4025C65.7717 38.0155 66.2302 37.7202 66.7373 37.5394C67.7672 37.1652 68.8946 37.1023 69.9842 37.173C70.5365 37.21 71.0859 37.2825 71.6289 37.39C71.0918 37.2473 70.5446 37.1459 69.9921 37.0865C67.6807 36.8224 65.2042 37.2155 64.2875 39.6526C63.9731 40.4105 63.7215 41.1888 63.0642 41.6716C62.4196 42.1213 61.5548 41.9074 60.9164 41.5285L60.484 41.2722L60.6412 41.7439C60.7985 42.236 61.5029 44.648 60.8897 44.8509C60.0626 44.9075 58.6066 43.7502 57.9399 43.2376L57.2858 42.7093C57.6364 43.4531 58.7245 45.4389 58.3157 46.1905C57.844 46.6622 56.2449 45.6245 55.7732 45.3116L55.4053 45.0584C55.649 45.7361 56.0106 46.5616 55.6631 47.2519C55.3361 47.8321 54.5279 47.8918 53.9241 47.8116C54.2543 48.7755 53.542 49.2708 52.7983 49.6985C52.5781 49.8416 52.3266 49.9705 52.1913 50.2095L52.1819 50.2221Z" fill="#C7C7C7"/>
<path d="M64.0863 42.4609C64.229 42.903 64.3389 43.3549 64.4149 43.8132C64.4574 44.1905 64.5297 44.6151 64.3363 44.9563C63.775 45.7063 62.4086 45.2267 61.6884 44.939L61.4919 44.8541C61.5684 45.2778 61.588 45.7098 61.5501 46.1387C61.4211 47.667 59.5673 46.5271 58.8645 46.0664L58.9148 46.3447C59.0091 46.8541 59.0453 47.8793 58.3283 47.8652C57.6773 47.8023 57.0468 47.4265 56.4839 47.0963L56.3676 47.0255C56.4902 47.5743 56.2889 48.2284 55.7119 48.4218C55.5448 48.4833 55.3693 48.5194 55.1914 48.5287C56.0279 48.5696 56.5893 47.9721 56.5106 47.1387L56.4147 47.2C56.9808 47.557 57.9226 48.1969 58.616 48.0303C59.278 47.7504 59.245 46.8919 59.1585 46.3007L58.9698 46.4249C59.4396 46.7538 59.9663 46.9927 60.5233 47.1293C61.9086 47.4296 61.9164 46.0003 61.7623 45.0318L61.5957 45.1623C62.4149 45.4767 63.8725 45.9343 64.4778 45.0506C64.8284 44.3604 64.3489 43.1465 64.091 42.4657L64.0863 42.4609Z" fill="#C7C7C7"/>
<path opacity="0.1" d="M51.0765 52.9669C51.5797 53.1068 52.5765 52.2452 53.0876 51.3489C53.5986 50.4527 54.9194 49.7766 54.9194 49.7766C57.715 51.1917 58.6443 49.2656 58.6443 49.2656C62.4604 50.8206 63.2891 48.2357 63.2891 48.2357C61.6491 49.7907 58.6459 48.5611 58.6459 48.5611C56.8361 50.415 54.9288 49.2325 54.9288 49.2325C54.5183 49.2915 54.1044 49.323 53.6898 49.3269C53.1599 49.319 54.0844 46.3174 54.9178 44.0374C55.704 41.8833 58.6317 38.6835 59.9604 38.0059H59.9478C58.3314 38.7512 56.9178 39.66 55.8125 40.8455C54.0168 42.7701 52.5199 47.8709 51.9555 49.8473C51.358 51.937 51.0765 52.9669 51.0765 52.9669Z" fill="black"/>
<path d="M75.8087 37.6976C78.889 36.7337 81.8246 34.5434 83.1186 31.5166C83.3326 31.0113 83.4908 30.484 83.5903 29.9443C83.6235 29.8212 83.6235 29.6916 83.5903 29.5685C83.4724 29.2902 83.1422 29.4836 82.9803 29.6062C82.7614 29.7677 82.5514 29.9409 82.3513 30.1251C82.5919 30.0025 82.823 29.8672 83.0667 29.7572C83.1634 29.7035 83.2709 29.6723 83.3812 29.666C83.3812 29.666 83.3482 29.6487 83.3513 29.6502C83.3409 29.7254 83.3208 29.7988 83.2916 29.8688C82.095 33.4318 78.9629 35.8564 75.8087 37.6976Z" fill="white"/>
<path d="M78.7646 40.0043C78.1168 40.476 77.2552 40.4635 76.4863 40.5782C75.7567 40.6584 74.7457 40.7182 74.0366 40.8927C75.2541 41.3458 76.5945 41.343 77.8102 40.8849C78.1955 40.7009 78.6514 40.4415 78.7631 39.998L78.7646 40.0043Z" fill="white"/>
<path d="M74.025 42.1777C74.3009 42.7553 74.6383 43.3015 75.0314 43.8067C75.3615 44.3099 75.8458 44.7375 75.9465 45.3508C76.1807 45.074 76.1116 44.6416 76.0125 44.3224C75.8389 43.8516 75.5739 43.4198 75.2328 43.0517C74.8917 42.6837 74.4813 42.3867 74.025 42.1777Z" fill="white"/>
<path d="M64.0254 38.4258C63.6411 38.9355 63.3132 39.4854 63.0474 40.0658C62.7533 40.5909 62.5945 41.2167 62.1039 41.5878C62.4577 41.6696 62.8099 41.4086 63.0474 41.1743C63.7248 40.424 64.0766 39.4354 64.0254 38.4258Z" fill="white"/>
<path d="M56.8425 5.1608L59.1198 7.91675C61.1567 10.3817 64.5381 11.2741 67.5261 10.1354L70.8669 8.86229L68.1109 11.1397C65.646 13.1765 64.7535 16.5579 65.8923 19.5459L67.1654 22.8867L64.888 20.1308C62.8511 17.6658 59.4697 16.7734 56.4817 17.9121L53.141 19.1852L55.8969 16.9079C58.3618 14.871 59.2543 11.4896 58.1156 8.50158L56.8425 5.1608Z" fill="#CEDCFC"/>
</svg>
