<svg width="301" height="241" viewBox="0 0 301 241" fill="none" xmlns="http://www.w3.org/2000/svg">
<rect width="301" height="240.8" fill="white"/>
<path d="M163.744 77.0566C168.399 77.0568 172.172 80.83 172.172 85.4844C172.172 90.1389 168.399 93.9129 163.744 93.9131H240.8C245.454 93.9131 249.228 97.6862 249.228 102.341C249.227 106.995 245.454 110.769 240.8 110.769H267.288C271.942 110.769 275.716 114.542 275.716 119.196C275.716 123.851 271.943 127.625 267.288 127.625H244.412C239.757 127.625 235.983 131.398 235.983 136.053C235.983 140.707 239.757 144.48 244.412 144.48H251.636C256.29 144.48 260.063 148.254 260.063 152.908C260.063 157.563 256.29 161.337 251.636 161.337H189.027C188.408 161.337 187.803 161.27 187.222 161.143C186.64 161.27 186.036 161.337 185.416 161.337H75.8516C71.197 161.337 67.4238 157.563 67.4238 152.908C67.4241 148.254 71.1971 144.481 75.8516 144.48H28.8955C24.241 144.48 20.4678 140.707 20.4678 136.053C20.4678 131.398 24.241 127.625 28.8955 127.625H77.0557C81.7103 127.625 85.4834 123.851 85.4834 119.196C85.4832 114.542 81.7102 110.769 77.0557 110.769H46.9561C42.3015 110.769 38.5274 106.995 38.5273 102.341C38.5273 97.6862 42.3014 93.9131 46.9561 93.9131H95.1162C90.4616 93.9131 86.6875 90.139 86.6875 85.4844C86.6876 80.8298 90.4616 77.0566 95.1162 77.0566H163.744ZM272.104 144.48C276.758 144.48 280.532 148.254 280.532 152.908C280.532 157.563 276.758 161.337 272.104 161.337C267.449 161.337 263.676 157.563 263.676 152.908C263.676 148.254 267.449 144.481 272.104 144.48Z" fill="#F3F7FF"/>
<path d="M216.203 57.7069L211.095 62.8151" stroke="#446FD0" stroke-width="2.5" stroke-linecap="round" stroke-linejoin="round"/>
<path d="M204.284 69.6269L199.176 74.735" stroke="#446FD0" stroke-width="2.5" stroke-linecap="round" stroke-linejoin="round"/>
<path d="M199.176 57.7071L204.284 62.8153" stroke="#446FD0" stroke-width="2.5" stroke-linecap="round" stroke-linejoin="round"/>
<path d="M211.095 69.6251L216.203 74.7332" stroke="#446FD0" stroke-width="2.5" stroke-linecap="round" stroke-linejoin="round"/>
<path d="M114.569 181.014L111.163 184.419" stroke="#446FD0" stroke-width="2.5" stroke-linecap="round" stroke-linejoin="round"/>
<path d="M104.352 191.23L100.947 194.636" stroke="#446FD0" stroke-width="2.5" stroke-linecap="round" stroke-linejoin="round"/>
<path d="M100.947 181.014L104.353 184.419" stroke="#446FD0" stroke-width="2.5" stroke-linecap="round" stroke-linejoin="round"/>
<path d="M111.163 191.231L114.569 194.636" stroke="#446FD0" stroke-width="2.5" stroke-linecap="round" stroke-linejoin="round"/>
<path fill-rule="evenodd" clip-rule="evenodd" d="M193.497 157.876C195.171 155.825 196.676 153.681 198.012 151.461C200.949 146.58 203.066 141.335 204.36 135.928C205.669 130.46 206.136 124.825 205.757 119.231C205.426 114.35 204.452 109.501 202.832 104.82C201.225 100.176 198.983 95.6985 196.102 91.5219C194.386 89.0331 192.443 86.6512 190.273 84.4045C187.087 81.1061 183.593 78.2862 179.88 75.9466C175.891 73.4327 171.65 71.4734 167.268 70.0707C161.78 68.314 156.072 67.4303 150.363 67.4239C145.921 67.4189 141.478 67.9449 137.139 69.0041C132.253 70.1964 127.498 72.0644 123.021 74.6108C119.085 76.8492 115.364 79.6119 111.958 82.9008C107.677 87.0339 104.21 91.693 101.559 96.6793C98.9637 101.561 97.1509 106.756 96.1234 112.079C95.0649 117.562 94.84 123.18 95.4521 128.729C96.2453 135.921 98.4445 142.996 102.057 149.511C104.368 153.679 107.258 157.618 110.728 161.211C116.236 166.915 122.668 171.188 129.556 174.021C137.933 177.465 146.985 178.781 155.876 177.951C163.337 177.254 170.685 175.046 177.423 171.317" fill="white"/>
<path d="M193.497 157.876C195.171 155.825 196.676 153.681 198.012 151.461C200.949 146.58 203.066 141.335 204.36 135.928C205.669 130.46 206.136 124.825 205.757 119.231C205.426 114.35 204.452 109.501 202.832 104.82C201.225 100.176 198.983 95.6985 196.102 91.5219C194.386 89.0331 192.443 86.6512 190.273 84.4045C187.087 81.1061 183.593 78.2862 179.88 75.9466C175.891 73.4327 171.65 71.4734 167.268 70.0707C161.78 68.314 156.072 67.4303 150.363 67.4239C145.921 67.4189 141.478 67.9449 137.139 69.0041C132.253 70.1964 127.498 72.0644 123.021 74.6108C119.085 76.8492 115.364 79.6119 111.958 82.9008C107.677 87.0339 104.21 91.693 101.559 96.6793C98.9637 101.561 97.1509 106.756 96.1234 112.079C95.0649 117.562 94.84 123.18 95.4521 128.729C96.2453 135.921 98.4445 142.996 102.057 149.511C104.368 153.679 107.258 157.618 110.728 161.211C116.236 166.915 122.668 171.188 129.556 174.021C137.933 177.465 146.985 178.781 155.876 177.951C163.337 177.254 170.685 175.046 177.423 171.317" stroke="#143888" stroke-width="2.5" stroke-linecap="round" stroke-linejoin="round"/>
<path fill-rule="evenodd" clip-rule="evenodd" d="M181.444 169.015C184.943 166.763 188.054 163.954 190.078 161.686L181.444 169.015Z" fill="white"/>
<path d="M181.444 169.015C184.943 166.763 188.054 163.954 190.078 161.686" stroke="#143888" stroke-width="2.5" stroke-linecap="round"/>
<path d="M201.068 125.959C200.724 125.965 200.379 125.968 200.033 125.968C169.627 125.968 144.731 102.263 142.645 72.2402C118.444 76.0576 99.9321 97.1059 99.9321 122.499C99.9321 150.598 122.598 173.376 150.558 173.376C177.36 173.376 199.298 152.444 201.068 125.959Z" fill="#E8F0FE"/>
<path d="M169.59 104.53C171.114 106.054 171.114 108.525 169.59 110.05L156.58 123.06L169.59 136.071C171.114 137.595 171.114 140.066 169.59 141.59C168.066 143.114 165.595 143.114 164.071 141.59L151.06 128.58L138.05 141.59C136.525 143.114 134.054 143.114 132.53 141.59C131.006 140.066 131.006 137.595 132.53 136.071L145.54 123.06L132.53 110.05C131.006 108.525 131.006 106.054 132.53 104.53C134.054 103.006 136.525 103.006 138.05 104.53L151.06 117.54L164.071 104.53C165.595 103.006 168.066 103.006 169.59 104.53Z" fill="white" stroke="#143888" stroke-width="2.5"/>
<path fill-rule="evenodd" clip-rule="evenodd" d="M133.432 77.5532C131.084 78.4341 128.79 79.5045 126.575 80.7648C123.131 82.7234 119.876 85.1406 116.896 88.0181C115.675 89.1977 114.529 90.4263 113.459 91.6977M110.148 96.1246C109.297 97.4103 108.514 98.7283 107.799 100.073C107.271 101.067 106.78 102.075 106.326 103.097" fill="white"/>
<path d="M133.871 78.7236C134.517 78.4811 134.845 77.7605 134.602 77.1141C134.36 76.4678 133.639 76.1404 132.993 76.3829L133.432 77.5532L133.871 78.7236ZM126.575 80.7648L127.193 81.8514L126.575 80.7648ZM116.896 88.0181L116.028 87.119L116.896 88.0181ZM112.503 90.8929C112.058 91.4211 112.126 92.2096 112.654 92.6541C113.182 93.0986 113.971 93.0308 114.415 92.5026L113.459 91.6977L112.503 90.8929ZM111.191 96.8144C111.572 96.2387 111.414 95.4632 110.838 95.0822C110.262 94.7012 109.487 94.859 109.106 95.4348L110.148 96.1246L111.191 96.8144ZM107.799 100.073L108.903 100.66V100.66L107.799 100.073ZM105.184 102.589C104.903 103.22 105.187 103.958 105.818 104.239C106.449 104.519 107.188 104.235 107.468 103.604L106.326 103.097L105.184 102.589ZM133.432 77.5532L132.993 76.3829C130.584 77.2867 128.23 78.385 125.957 79.6783L126.575 80.7648L127.193 81.8514C129.351 80.6239 131.584 79.5815 133.871 78.7236L133.432 77.5532ZM126.575 80.7648L125.957 79.6783C122.423 81.6881 119.084 84.1681 116.028 87.119L116.896 88.0181L117.765 88.9173C120.669 86.113 123.84 83.7586 127.193 81.8514L126.575 80.7648ZM116.896 88.0181L116.028 87.119C114.775 88.3285 113.6 89.5885 112.503 90.8929L113.459 91.6977L114.415 92.5026C115.458 91.264 116.574 90.0669 117.765 88.9173L116.896 88.0181ZM110.148 96.1246L109.106 95.4348C108.233 96.754 107.429 98.1064 106.696 99.4867L107.799 100.073L108.903 100.66C109.599 99.3501 110.362 98.0666 111.191 96.8144L110.148 96.1246ZM107.799 100.073L106.696 99.4867C106.154 100.506 105.65 101.541 105.184 102.589L106.326 103.097L107.468 103.604C107.91 102.61 108.389 101.628 108.903 100.66L107.799 100.073Z" fill="#446FD0"/>
</svg>
