<svg width="303" height="86" viewBox="0 0 303 86" fill="none" xmlns="http://www.w3.org/2000/svg">
<rect x="88.5" width="126" height="86" rx="4" fill="#EFF4FF"/>
<rect x="90.5" y="2" width="39.3333" height="40" rx="4" fill="#F5F8FF"/>
<rect x="131.833" y="2" width="39.3333" height="40" rx="4" fill="#F5F8FF"/>
<rect x="173.167" y="2" width="39.3333" height="40" rx="4" fill="#F5F8FF"/>
<path d="M222.5 31.9993C224.801 31.9993 226.667 30.1339 226.667 27.8327C226.667 25.5315 224.801 23.666 222.5 23.666C220.199 23.666 218.333 25.5315 218.333 27.8327C218.333 30.1339 220.199 31.9993 222.5 31.9993Z" fill="#C9D8FF"/>
<path d="M222.5 34.084C218.325 34.084 214.925 36.884 214.925 40.334C214.925 40.5673 215.108 40.7507 215.341 40.7507H229.658C229.891 40.7507 230.075 40.5673 230.075 40.334C230.075 36.884 226.675 34.084 222.5 34.084Z" fill="#C9D8FF"/>
<path d="M222.5 31.9993C224.801 31.9993 226.667 30.1339 226.667 27.8327C226.667 25.5315 224.801 23.666 222.5 23.666C220.199 23.666 218.333 25.5315 218.333 27.8327C218.333 30.1339 220.199 31.9993 222.5 31.9993Z" fill="#C9D8FF"/>
<path d="M222.5 34.084C218.325 34.084 214.925 36.884 214.925 40.334C214.925 40.5673 215.108 40.7507 215.341 40.7507H229.658C229.891 40.7507 230.075 40.5673 230.075 40.334C230.075 36.884 226.675 34.084 222.5 34.084Z" fill="#C9D8FF"/>
<path d="M222.5 31.9993C224.801 31.9993 226.667 30.1339 226.667 27.8327C226.667 25.5315 224.801 23.666 222.5 23.666C220.199 23.666 218.333 25.5315 218.333 27.8327C218.333 30.1339 220.199 31.9993 222.5 31.9993Z" fill="#C9D8FF"/>
<path d="M222.5 34.084C218.325 34.084 214.925 36.884 214.925 40.334C214.925 40.5673 215.108 40.7507 215.341 40.7507H229.658C229.891 40.7507 230.075 40.5673 230.075 40.334C230.075 36.884 226.675 34.084 222.5 34.084Z" fill="#C9D8FF"/>
<rect x="90.5" y="44" width="39.3333" height="40" rx="4" fill="#F5F8FF"/>
<rect x="131.833" y="44" width="39.3333" height="40" rx="4" fill="#F5F8FF"/>
<rect x="173.167" y="44" width="39.3333" height="40" rx="4" fill="#F5F8FF"/>
<path d="M218.5 73.9993C220.801 73.9993 222.667 72.1339 222.667 69.8327C222.667 67.5315 220.801 65.666 218.5 65.666C216.199 65.666 214.333 67.5315 214.333 69.8327C214.333 72.1339 216.199 73.9993 218.5 73.9993Z" fill="#C9D8FF"/>
<path d="M218.5 76.084C214.325 76.084 210.925 78.884 210.925 82.334C210.925 82.5673 211.108 82.7507 211.341 82.7507H225.658C225.891 82.7507 226.075 82.5673 226.075 82.334C226.075 78.884 222.675 76.084 218.5 76.084Z" fill="#C9D8FF"/>
<path d="M222.5 73.9993C224.801 73.9993 226.667 72.1339 226.667 69.8327C226.667 67.5315 224.801 65.666 222.5 65.666C220.199 65.666 218.333 67.5315 218.333 69.8327C218.333 72.1339 220.199 73.9993 222.5 73.9993Z" fill="#C9D8FF"/>
<path d="M222.5 76.084C218.325 76.084 214.925 78.884 214.925 82.334C214.925 82.5673 215.108 82.7507 215.341 82.7507H229.658C229.891 82.7507 230.075 82.5673 230.075 82.334C230.075 78.884 226.675 76.084 222.5 76.084Z" fill="#C9D8FF"/>
<path d="M222.5 73.9993C224.801 73.9993 226.667 72.1339 226.667 69.8327C226.667 67.5315 224.801 65.666 222.5 65.666C220.199 65.666 218.333 67.5315 218.333 69.8327C218.333 72.1339 220.199 73.9993 222.5 73.9993Z" fill="#C9D8FF"/>
<path d="M222.5 76.084C218.325 76.084 214.925 78.884 214.925 82.334C214.925 82.5673 215.108 82.7507 215.341 82.7507H229.658C229.891 82.7507 230.075 82.5673 230.075 82.334C230.075 78.884 226.675 76.084 222.5 76.084Z" fill="#C9D8FF"/>
</svg>
