<svg width="22" height="22" viewBox="0 0 22 22" fill="none" xmlns="http://www.w3.org/2000/svg">
<path d="M1.9285 14.1948L2.62486 13.9734V13.9734L1.9285 14.1948ZM0.86984 8.18528L1.57373 8.38146L0.86984 8.18528ZM5.29055 3.61977L4.85493 3.0331H4.85493L5.29055 3.61977ZM0.977837 7.84559L1.66578 8.09193V8.09193L0.977837 7.84559ZM4.81101 19.9024L4.39735 20.5048H4.39735L4.81101 19.9024ZM4.52827 19.6925L4.07132 20.2627V20.2627L4.52827 19.6925ZM19.5324 14.1948L18.8361 13.9734L19.5324 14.1948ZM16.9327 19.6925L17.3896 20.2627V20.2627L16.9327 19.6925ZM16.6499 19.9024L17.0636 20.5048V20.5048L16.6499 19.9024ZM16.1704 3.61977L16.606 3.0331V3.0331L16.1704 3.61977ZM20.4831 7.84559L19.7952 8.09193V8.09193L20.4831 7.84559ZM20.5911 8.18528L19.8872 8.38146V8.38146L20.5911 8.18528ZM10.9052 0.733743L10.8778 1.46394L10.9052 0.733743ZM10.5557 0.733743L10.5831 1.46394L10.5557 0.733743ZM8.82385 15.4126C8.42028 15.4126 8.09313 15.7398 8.09313 16.1433C8.09313 16.5469 8.42028 16.874 8.82385 16.874V16.1433V15.4126ZM12.6371 16.874C13.0407 16.874 13.3678 16.5469 13.3678 16.1433C13.3678 15.7398 13.0407 15.4126 12.6371 15.4126V16.1433V16.874ZM1.9285 14.1948L2.62486 13.9734C2.13462 12.4313 1.78508 11.3288 1.60163 10.4334C1.42152 9.55438 1.41728 8.94278 1.57373 8.38146L0.86984 8.18528L0.165953 7.9891C-0.0755579 8.85564 -0.0360074 9.72158 0.169939 10.7267C0.372536 11.7155 0.751303 12.9038 1.23213 14.4162L1.9285 14.1948ZM5.29055 3.61977L4.85493 3.0331C3.59653 3.96749 2.60542 4.70218 1.87163 5.38155C1.12479 6.07299 0.593327 6.75189 0.289899 7.59925L0.977837 7.84559L1.66578 8.09193C1.8616 7.54506 2.21534 7.05493 2.86447 6.45394C3.52665 5.84089 4.44226 5.15978 5.72617 4.20644L5.29055 3.61977ZM0.86984 8.18528L1.57373 8.38146C1.60094 8.28381 1.63165 8.18724 1.66578 8.09193L0.977837 7.84559L0.289899 7.59925C0.243927 7.72763 0.202585 7.85767 0.165953 7.9891L0.86984 8.18528ZM10.7305 20.7305V19.9998C9.14301 19.9998 8.01173 19.9987 7.12476 19.9007C6.25572 19.8046 5.69248 19.6213 5.22466 19.3001L4.81101 19.9024L4.39735 20.5048C5.1353 21.0116 5.96056 21.2423 6.96419 21.3533C7.9499 21.4622 9.17546 21.4612 10.7305 21.4612V20.7305ZM1.9285 14.1948L1.23213 14.4162C1.71292 15.9284 2.08992 17.1174 2.49482 18.0393C2.90624 18.9761 3.37342 19.7034 4.07132 20.2627L4.52827 19.6925L4.98522 19.1223C4.53995 18.7655 4.19279 18.2711 3.83288 17.4517C3.46646 16.6173 3.11515 15.5155 2.62486 13.9734L1.9285 14.1948ZM4.81101 19.9024L5.22466 19.3001C5.14278 19.2438 5.06291 19.1845 4.98522 19.1223L4.52827 19.6925L4.07132 20.2627C4.17703 20.3474 4.28578 20.4282 4.39735 20.5048L4.81101 19.9024ZM19.5324 14.1948L18.8361 13.9734C18.3458 15.5155 17.9945 16.6173 17.6281 17.4517C17.2681 18.2711 16.921 18.7655 16.4757 19.1223L16.9327 19.6925L17.3896 20.2627C18.0875 19.7034 18.5547 18.9761 18.9661 18.0393C19.371 17.1174 19.748 15.9284 20.2288 14.4162L19.5324 14.1948ZM10.7305 20.7305V21.4612C12.2855 21.4612 13.511 21.4622 14.4967 21.3533C15.5004 21.2423 16.3256 21.0116 17.0636 20.5048L16.6499 19.9024L16.2363 19.3001C15.7685 19.6213 15.2052 19.8046 14.3362 19.9007C13.4492 19.9987 12.3179 19.9998 10.7305 19.9998V20.7305ZM16.9327 19.6925L16.4757 19.1223C16.398 19.1845 16.3182 19.2438 16.2363 19.3001L16.6499 19.9024L17.0636 20.5048C17.1752 20.4282 17.2839 20.3474 17.3896 20.2627L16.9327 19.6925ZM16.1704 3.61977L15.7348 4.20644C17.0187 5.15978 17.9343 5.84089 18.5965 6.45394C19.2456 7.05493 19.5993 7.54506 19.7952 8.09193L20.4831 7.84559L21.171 7.59925C20.8676 6.75189 20.3361 6.07299 19.5893 5.38155C18.8555 4.70218 17.8644 3.9675 16.606 3.0331L16.1704 3.61977ZM19.5324 14.1948L20.2288 14.4162C20.7096 12.9038 21.0884 11.7155 21.291 10.7267C21.4969 9.72158 21.5365 8.85564 21.295 7.9891L20.5911 8.18528L19.8872 8.38146C20.0437 8.94278 20.0394 9.55438 19.8593 10.4334C19.6759 11.3288 19.3263 12.4313 18.8361 13.9734L19.5324 14.1948ZM20.4831 7.84559L19.7952 8.09193C19.8293 8.18723 19.86 8.28381 19.8872 8.38146L20.5911 8.18528L21.295 7.9891C21.2584 7.85767 21.217 7.72763 21.171 7.59925L20.4831 7.84559ZM16.1704 3.61977L16.606 3.0331C15.3478 2.09882 14.3576 1.36234 13.4982 0.858808C12.6242 0.34667 11.8237 0.0369501 10.9326 0.00354218L10.9052 0.733743L10.8778 1.46394C11.4385 1.48496 11.9994 1.67439 12.7594 2.11973C13.5341 2.57367 14.4507 3.25299 15.7348 4.20644L16.1704 3.61977ZM5.29055 3.61977L5.72617 4.20644C7.01023 3.25299 7.9268 2.57367 8.70152 2.11973C9.46156 1.67439 10.0225 1.48496 10.5831 1.46394L10.5557 0.733743L10.5283 0.00354218C9.63728 0.0369501 8.83675 0.34667 7.9627 0.858808C7.10334 1.36234 6.11318 2.09882 4.85493 3.0331L5.29055 3.61977ZM10.9052 0.733743L10.9326 0.00354218C10.7979 -0.001508 10.663 -0.001508 10.5283 0.00354218L10.5557 0.733743L10.5831 1.46394C10.6813 1.46026 10.7796 1.46026 10.8778 1.46394L10.9052 0.733743ZM8.82385 16.1433V16.874H12.6371V16.1433V15.4126H8.82385V16.1433Z" fill="#999999"/>
</svg>
