<svg width="87" height="80" viewBox="0 0 87 80" fill="none" xmlns="http://www.w3.org/2000/svg">
<path d="M11.7958 23.5985C10.9511 26.3352 12.3641 29.2596 15.0333 30.2984C12.2965 29.4536 9.37212 30.8667 8.3333 33.5359C9.17809 30.7991 7.76501 27.8747 5.09588 26.8359C7.83261 27.6807 10.757 26.2676 11.7958 23.5985Z" fill="#D0DFFF" fill-opacity="0.99"/>
<path d="M15.1029 69.231C15.77 71.0201 17.7059 71.9898 19.5382 71.4526C17.7491 72.1197 16.7794 74.0557 17.3166 75.8879C16.6495 74.0989 14.7135 73.1292 12.8813 73.6663C14.6703 72.9992 15.64 71.0633 15.1029 69.231Z" fill="#D0DFFF" fill-opacity="0.99"/>
<path d="M76.0242 35.8592C75.8009 37.7554 77.0805 39.5021 78.9559 39.8608C77.0597 39.6374 75.313 40.9171 74.9543 42.7924C75.1777 40.8962 73.898 39.1495 72.0227 38.7908C73.9189 39.0142 75.6655 37.7345 76.0242 35.8592Z" fill="#D0DFFF" fill-opacity="0.99"/>
<path d="M2.83559 47.693C2.54384 48.5996 3.00206 49.5775 3.88539 49.9335C2.97881 49.6418 2.00086 50.1 1.64487 50.9833C1.93662 50.0768 1.4784 49.0988 0.59507 48.7428C1.50165 49.0346 2.4796 48.5763 2.83559 47.693Z" fill="#D0DFFF" fill-opacity="0.99"/>
<path d="M78.5289 57.7848C78.2372 58.6914 78.6954 59.6693 79.5787 60.0253C78.6722 59.7336 77.6942 60.1918 77.3382 61.0751C77.63 60.1686 77.1718 59.1906 76.2884 58.8346C77.195 59.1264 78.173 58.6681 78.5289 57.7848Z" fill="#D0DFFF" fill-opacity="0.99"/>
<path d="M61.7086 61.9899C61.4169 62.8965 61.8751 63.8744 62.7584 64.2304C61.8519 63.9387 60.8739 64.3969 60.5179 65.2802C60.8097 64.3736 60.3514 63.3957 59.4681 63.0397C60.3747 63.3314 61.3526 62.8732 61.7086 61.9899Z" fill="#D0DFFF" fill-opacity="0.99"/>
<path d="M85.2575 10.6872C84.9657 11.5937 85.4239 12.5717 86.3073 12.9277C85.4007 12.6359 84.4227 13.0941 84.0667 13.9775C84.3585 13.0709 83.9003 12.0929 83.0169 11.737C83.9235 12.0287 84.9015 11.5705 85.2575 10.6872Z" fill="#D0DFFF" fill-opacity="0.99"/>
<path d="M49.9342 20.7809C49.6425 21.6875 50.1007 22.6654 50.984 23.0214C50.0774 22.7297 49.0995 23.1879 48.7435 24.0712C49.0353 23.1646 48.577 22.1867 47.6937 21.8307C48.6003 22.1225 49.5782 21.6642 49.9342 20.7809Z" fill="#D0DFFF" fill-opacity="0.99"/>
<path d="M71.86 25.8704L51.571 76.7059C50.986 78.1715 49.3227 78.8858 47.8571 78.3009L13.7527 64.6895C12.2871 64.1045 11.5744 62.4419 12.1594 60.9763L32.4484 10.1408C33.0333 8.67518 34.695 7.96013 36.1605 8.54506L70.265 22.1565C71.7305 22.7414 72.4449 24.4048 71.86 25.8704Z" fill="#143888" fill-opacity="0.98"/>
<path d="M70.1746 25.383L34.0049 10.9473L13.8444 61.4606L50.0142 75.8964L70.1746 25.383Z" fill="#F7F7F7"/>
<path d="M50.0145 75.8967L13.8447 61.4609L13.5555 62.1857L49.7252 76.6214L50.0145 75.8967Z" fill="#143888" fill-opacity="0.98"/>
<path opacity="0.1" d="M60.9847 22.846C61.0985 22.4738 60.9102 22.0705 60.5428 21.9239L60.5824 21.9397C60.5824 21.9397 56.224 19.1437 56.5937 17.1348L58.5664 12.192C59.1847 10.6429 58.4297 8.88478 56.8805 8.26645C55.3314 7.64819 53.5742 8.40354 52.9559 9.95281L50.9832 14.8956C49.8674 16.6067 44.7814 15.6333 44.7814 15.6333L44.8219 15.6495C44.4536 15.5025 44.0393 15.6653 43.8665 16.0139C43.8571 16.0325 43.8485 16.0515 43.8408 16.0708C43.6862 16.4584 43.8748 16.8972 44.2622 17.0518L59.9831 23.3262C60.3698 23.4806 60.8094 23.2925 60.9641 22.9049C60.9718 22.8856 60.9787 22.8659 60.9847 22.846ZM56.3439 9.61091C57.256 9.97496 57.7 11.0088 57.336 11.921C56.9719 12.8331 55.9381 13.2771 55.0259 12.9131C54.1148 12.5494 53.6698 11.5152 54.0338 10.603C54.3978 9.69106 55.4326 9.24721 56.3439 9.61091Z" fill="black"/>
<path d="M35.1975 27.8243L32.021 26.5565C31.4107 26.313 31.1123 25.6182 31.3559 25.0079L32.6237 21.8315C32.8672 21.2212 33.562 20.9228 34.1723 21.1664L37.3487 22.4341C37.959 22.6777 38.2574 23.3724 38.0138 23.9827L36.7461 27.1592C36.5024 27.7697 35.8078 28.0679 35.1975 27.8243ZM34.0824 21.3915C33.5961 21.1974 33.0426 21.4351 32.8486 21.9214L31.5808 25.0979C31.3867 25.5842 31.6244 26.1377 32.1107 26.3317L35.2872 27.5995C35.7735 27.7936 36.327 27.5559 36.5211 27.0696L37.7888 23.8931C37.9829 23.4068 37.7452 22.8533 37.2589 22.6593L34.0824 21.3915Z" fill="#E0E0E0"/>
<path d="M59.6723 34.1864L40.4779 26.5257C40.092 26.3717 39.9041 25.9341 40.0581 25.5482C40.2121 25.1624 40.6497 24.9744 41.0355 25.1284L60.2299 32.7891C60.6158 32.9431 60.8037 33.3807 60.6497 33.7666C60.4957 34.1524 60.0581 34.3404 59.6723 34.1864Z" fill="#E0E0E0"/>
<path d="M53.7303 33.9978L39.7259 28.4085C39.3401 28.2545 39.1521 27.8169 39.3061 27.431C39.4601 27.0452 39.8977 26.8572 40.2836 27.0112L54.288 32.6006C54.6739 32.7546 54.8618 33.1922 54.7078 33.578C54.5538 33.9639 54.1162 34.1518 53.7303 33.9978Z" fill="#E0E0E0"/>
<path d="M32.0165 35.7964L28.8401 34.5287C28.2909 34.3095 28.0235 33.6867 28.2426 33.1375L29.5104 29.9611C29.7296 29.4119 30.3524 29.1445 30.9015 29.3636L34.078 30.6314C34.6271 30.8506 34.8946 31.4734 34.6754 32.0225L33.4077 35.1989C33.1885 35.7481 32.5657 36.0156 32.0165 35.7964Z" stroke="#C4D1EF" stroke-width="0.242381" stroke-miterlimit="10"/>
<path d="M56.4467 42.2704L37.2523 34.6097C36.8664 34.4557 36.6785 34.0181 36.8325 33.6322C36.9865 33.2464 37.4241 33.0584 37.81 33.2124L57.0043 40.8731C57.3902 41.0271 57.5781 41.4647 57.4241 41.8506C57.2701 42.2364 56.8325 42.4244 56.4467 42.2704Z" fill="#C4D1EF"/>
<path d="M44.1753 39.5576L36.5003 36.4944C36.1145 36.3404 35.9265 35.9028 36.0805 35.517C36.2346 35.1311 36.6721 34.9432 37.058 35.0972L44.7329 38.1603C45.1188 38.3143 45.3067 38.7519 45.1527 39.1378C44.9987 39.5237 44.5612 39.7116 44.1753 39.5576Z" fill="#C4D1EF"/>
<path d="M28.7443 43.9924L25.5678 42.7247C24.9575 42.4811 24.6591 41.7864 24.9027 41.176L26.1705 37.9994C26.4141 37.3891 27.1089 37.0908 27.7192 37.3343L30.8956 38.6021C31.5059 38.8457 31.8043 39.5404 31.5607 40.1507L30.2929 43.3273C30.0494 43.9375 29.3546 44.236 28.7443 43.9924ZM27.6294 37.5593C27.1431 37.3652 26.5896 37.6029 26.3956 38.0891L25.1278 41.2657C24.9337 41.752 25.1714 42.3053 25.6577 42.4994L28.8342 43.7671C29.3205 43.9612 29.8739 43.7237 30.068 43.2374L31.3358 40.0608C31.5298 39.5746 31.2921 39.0211 30.8058 38.827L27.6294 37.5593Z" fill="#E0E0E0"/>
<path d="M53.2191 50.3543L34.0248 42.6937C33.6389 42.5396 33.451 42.1021 33.605 41.7162C33.759 41.3303 34.1965 41.1424 34.5824 41.2964L53.7768 48.9571C54.1627 49.1111 54.3506 49.5487 54.1966 49.9345C54.0427 50.3202 53.605 50.5083 53.2191 50.3543Z" fill="#E0E0E0"/>
<path d="M42.6867 48.334L33.2718 44.5765C32.886 44.4225 32.698 43.9849 32.852 43.599C33.006 43.2131 33.4436 43.0252 33.8295 43.1792L43.2443 46.9368C43.6302 47.0908 43.8181 47.5284 43.6641 47.9142C43.5104 48.3 43.0725 48.488 42.6867 48.334Z" fill="#E0E0E0"/>
<path d="M25.5177 52.0784L22.3413 50.8106C21.731 50.567 21.4326 49.8723 21.6762 49.262L22.944 46.0854C23.1876 45.4751 23.8823 45.1767 24.4926 45.4203L27.669 46.688C28.2794 46.9316 28.5777 47.6263 28.3341 48.2367L27.0663 51.4133C26.8228 52.0234 26.128 52.3219 25.5177 52.0784ZM24.4028 45.6452C23.9165 45.4511 23.3631 45.6887 23.169 46.175L21.9012 49.3516C21.7071 49.8379 21.9449 50.3912 22.4312 50.5853L25.6076 51.8531C26.0939 52.0471 26.6473 51.8096 26.8414 51.3233L28.1092 48.1467C28.3033 47.6604 28.0656 47.1071 27.5793 46.913L24.4028 45.6452Z" fill="#E0E0E0"/>
<path d="M49.9926 58.4403L30.7982 50.7796C30.4123 50.6256 30.2244 50.188 30.3784 49.8021C30.5324 49.4163 30.97 49.2283 31.3558 49.3823L50.5502 57.043C50.9361 57.197 51.124 57.6346 50.97 58.0205C50.8161 58.4062 50.3784 58.5943 49.9926 58.4403Z" fill="#E0E0E0"/>
<path d="M48.6645 60.0931L30.0462 52.6624C29.6604 52.5084 29.4724 52.0708 29.6264 51.685C29.7804 51.2991 30.218 51.1112 30.6039 51.2652L49.2223 58.696C49.6082 58.85 49.7961 59.2876 49.6421 59.6734C49.4881 60.0593 49.0503 60.2471 48.6645 60.0931Z" fill="#E0E0E0"/>
<path d="M22.2912 60.1622L19.1148 58.8944C18.5045 58.6508 18.2061 57.9561 18.4497 57.3458L19.7174 54.1694C19.961 53.5591 20.6557 53.2607 21.266 53.5043L24.4425 54.772C25.0528 55.0156 25.3512 55.7103 25.1076 56.3206L23.8398 59.4971C23.5963 60.1072 22.9015 60.4058 22.2912 60.1622ZM21.1763 53.7292C20.69 53.5351 20.1365 53.7727 19.9424 54.259L18.6747 57.4354C18.4806 57.9217 18.7184 58.475 19.2047 58.6691L22.3811 59.9369C22.8674 60.131 23.4208 59.8934 23.6149 59.4071L24.8827 56.2307C25.0768 55.7444 24.839 55.1911 24.3527 54.997L21.1763 53.7292Z" fill="#E0E0E0"/>
<path d="M46.766 66.5243L27.5716 58.8636C27.1858 58.7096 26.9978 58.272 27.1518 57.8861C27.3058 57.5003 27.7434 57.3123 28.1293 57.4663L47.3237 65.127C47.7095 65.281 47.8975 65.7186 47.7435 66.1045C47.5895 66.4903 47.1519 66.6783 46.766 66.5243Z" fill="#E0E0E0"/>
<path d="M42.4688 66.9921L26.8197 60.7464C26.4338 60.5924 26.2459 60.1548 26.3999 59.7689C26.5539 59.3831 26.9915 59.1951 27.3773 59.3491L43.0265 65.5949C43.4124 65.7489 43.6003 66.1865 43.4463 66.5723C43.2925 66.9583 42.8547 67.1461 42.4688 66.9921Z" fill="#E0E0E0"/>
<path d="M61.0288 22.7326C61.1427 22.3604 60.9544 21.9571 60.587 21.8105L60.6266 21.8263C60.6266 21.8263 56.2682 19.0304 56.6379 17.0215L58.6105 12.0788C59.2288 10.5297 58.4739 8.77157 56.9246 8.15324C55.3755 7.53497 53.6184 8.29033 53 9.8396L51.0273 14.7824C49.9114 16.4937 44.8255 15.5201 44.8255 15.5201L44.866 15.5363C44.4977 15.3893 44.0835 15.5519 43.9106 15.9007C43.9012 15.9193 43.8925 15.9382 43.8847 15.9577C43.73 16.3453 43.9186 16.7841 44.306 16.9387L60.027 23.2131C60.4135 23.3674 60.8534 23.1792 61.008 22.7918C61.0162 22.7723 61.023 22.7526 61.0288 22.7326ZM56.3882 9.49777C57.3003 9.86181 57.7443 10.8957 57.3803 11.8078C57.0162 12.7199 55.9824 13.164 55.0702 12.7999C54.1591 12.4363 53.7141 11.402 54.0781 10.4899C54.4422 9.57774 55.4769 9.13407 56.3882 9.49777Z" fill="#FFB100"/>
<path d="M61.0083 22.7926C60.8536 23.1801 60.4138 23.3682 60.0273 23.2139L44.3064 16.9395C43.9188 16.7848 43.7304 16.3459 43.885 15.9585C43.8927 15.9392 43.9013 15.9202 43.9109 15.9015L61.0291 22.7335C61.0229 22.7536 61.016 22.7733 61.0083 22.7926Z" fill="#F5973A"/>
</svg>
