<svg width="24" height="20" viewBox="0 0 24 20" fill="none" xmlns="http://www.w3.org/2000/svg">
<path d="M22.75 10.5C23.1642 10.5 23.5 10.1642 23.5 9.75C23.5 9.33579 23.1642 9 22.75 9V9.75V10.5ZM0.75 9C0.335786 9 0 9.33579 0 9.75C0 10.1642 0.335786 10.5 0.75 10.5V9.75V9ZM2.75 13.75H2V13.75H2.75ZM3.5 12.75C3.5 12.3358 3.16421 12 2.75 12C2.33579 12 2 12.3358 2 12.75H2.75H3.5ZM8.75 19.5C9.16421 19.5 9.5 19.1642 9.5 18.75C9.5 18.3358 9.16421 18 8.75 18V18.75V19.5ZM7.75 18.75V18V18V18.75ZM8.75 1.5C9.16421 1.5 9.5 1.16421 9.5 0.75C9.5 0.335787 9.16421 2.38419e-07 8.75 2.38419e-07V0.75V1.5ZM2 6.75C2 7.16421 2.33579 7.5 2.75 7.5C3.16421 7.5 3.5 7.16421 3.5 6.75H2.75H2ZM20.75 5.75H20V5.75H20.75ZM20 6.75C20 7.16421 20.3358 7.5 20.75 7.5C21.1642 7.5 21.5 7.16421 21.5 6.75H20.75H20ZM14.75 0C14.3358 0 14 0.335786 14 0.75C14 1.16421 14.3358 1.5 14.75 1.5V0.75V0ZM15.75 0.75V5.96046e-08V0.75ZM15.75 18.75V18V18V18.75ZM14.75 18C14.3358 18 14 18.3358 14 18.75C14 19.1642 14.3358 19.5 14.75 19.5V18.75V18ZM21.5 12.75C21.5 12.3358 21.1642 12 20.75 12C20.3358 12 20 12.3358 20 12.75H20.75H21.5ZM20.75 13.75H21.5V13.75H20.75ZM22.75 9.75V9H0.75V9.75V10.5H22.75V9.75ZM2.75 13.75H3.5V12.75H2.75H2V13.75H2.75ZM8.75 18.75V18H7.75V18.75V19.5H8.75V18.75ZM2.75 13.75H2C2 16.9256 4.57436 19.5 7.75 19.5V18.75V18C5.40279 18 3.5 16.0972 3.5 13.75H2.75ZM7.75 0.75V1.5H8.75V0.75V2.38419e-07H7.75V0.75ZM2.75 6.75H3.5V5.75H2.75H2V6.75H2.75ZM7.75 0.75V2.38419e-07C4.57436 2.38419e-07 2 2.57436 2 5.75H2.75H3.5C3.5 3.40279 5.40279 1.5 7.75 1.5V0.75ZM20.75 5.75H20V6.75H20.75H21.5V5.75H20.75ZM14.75 0.75V1.5L15.75 1.5V0.75V5.96046e-08L14.75 0V0.75ZM20.75 5.75H21.5C21.5 2.57436 18.9256 1.78814e-07 15.75 5.96046e-08V0.75V1.5C18.0972 1.5 20 3.40279 20 5.75H20.75ZM15.75 18.75V18H14.75V18.75V19.5H15.75V18.75ZM20.75 12.75H20V13.75H20.75H21.5V12.75H20.75ZM15.75 18.75V19.5C18.9256 19.5 21.5 16.9256 21.5 13.75H20.75H20C20 16.0972 18.0972 18 15.75 18V18.75Z" fill="white"/>
</svg>
