<svg width="20" height="22" viewBox="0 0 20 22" fill="none" xmlns="http://www.w3.org/2000/svg">
<path d="M13.75 0.75V4.75M5.75 0.75V4.75" stroke="#999999" stroke-width="1.5" stroke-linecap="round" stroke-linejoin="round"/>
<path d="M10.75 2.75H8.75C4.97876 2.75 3.09315 2.75 1.92157 3.92157C0.75 5.09315 0.75 6.97876 0.75 10.75V12.75C0.75 16.5212 0.75 18.4069 1.92157 19.5784C3.09315 20.75 4.97876 20.75 8.75 20.75H10.75C14.5212 20.75 16.4069 20.75 17.5784 19.5784C18.75 18.4069 18.75 16.5212 18.75 12.75V10.75C18.75 6.97876 18.75 5.09315 17.5784 3.92157C16.4069 2.75 14.5212 2.75 10.75 2.75Z" stroke="#999999" stroke-width="1.5" stroke-linecap="round" stroke-linejoin="round"/>
<path d="M0.75 8.75H18.75" stroke="#999999" stroke-width="1.5" stroke-linecap="round" stroke-linejoin="round"/>
<path d="M9.74551 12.75H9.75449M9.74551 16.75H9.75449M13.741 12.75H13.75M5.75 12.75H5.75897M5.75 16.75H5.75897" stroke="#999999" stroke-width="2" stroke-linecap="round" stroke-linejoin="round"/>
</svg>
